<?xml version="1.0" standalone="no"?>
<!DOCTYPE svg PUBLIC "-//W3C//DTD SVG 20010904//EN"
 "http://www.w3.org/TR/2001/REC-SVG-20010904/DTD/svg10.dtd">
<svg version="1.0" xmlns="http://www.w3.org/2000/svg"
 width="600.000000pt" height="600.000000pt" viewBox="0 0 600.000000 600.000000"
 preserveAspectRatio="xMidYMid meet">
<metadata>
Created by potrace 1.11, written by Peter Selinger 2001-2013
</metadata>
<g transform="translate(0.000000,600.000000) scale(0.100000,-0.100000)"
fill="#000000" stroke="none">
<path d="M4795 4729 c-195 -48 -261 -126 -483 -565 -71 -142 -144 -278 -161
-301 -40 -55 -380 -365 -496 -452 -49 -37 -164 -112 -255 -166 -191 -113 -257
-158 -395 -270 -55 -44 -120 -95 -145 -112 -25 -17 -51 -41 -58 -54 -19 -33
-80 -80 -234 -177 -217 -137 -290 -169 -733 -318 -577 -195 -1031 -331 -1268
-379 -85 -18 -148 -36 -163 -48 -60 -47 -1 -84 113 -72 143 15 388 87 1153
340 979 323 889 300 1165 300 310 -1 484 -24 790 -106 212 -56 192 -41 198
-151 5 -85 10 -122 23 -187 3 -13 26 -46 53 -75 29 -31 75 -103 116 -181 37
-71 73 -138 79 -148 16 -26 -3 -34 -103 -39 -103 -6 -160 -27 -75 -28 59 0
204 -28 218 -41 20 -18 -13 -30 -109 -40 -55 -5 -107 -11 -117 -15 -34 -10
-18 -22 25 -17 23 3 76 -3 117 -12 41 -9 125 -23 185 -31 61 -8 130 -21 154
-29 25 -8 49 -15 54 -15 20 0 -20 34 -62 53 -60 26 -39 36 74 38 l90 1 -40 19
c-22 10 -50 19 -61 19 -12 0 -27 7 -35 16 -7 8 -26 22 -43 31 l-31 16 25 9
c14 5 53 6 87 2 35 -3 63 -4 63 -1 0 23 -143 57 -242 57 -60 0 -69 3 -87 27
-28 35 -130 247 -138 285 -4 23 8 58 57 159 51 106 63 142 68 195 2 35 10 68
16 72 6 5 49 25 95 45 164 73 291 172 392 307 98 131 225 377 274 530 63 198
75 279 85 540 13 337 40 441 150 578 59 74 123 101 265 114 107 9 205 32 205
49 0 17 -141 78 -217 94 -96 20 -183 49 -268 91 -136 67 -228 78 -370 43z
m-430 -1117 c43 -13 121 -68 146 -103 25 -36 23 -64 -16 -169 -33 -90 -44
-103 -104 -131 -25 -12 -69 -32 -98 -46 -28 -14 -56 -22 -63 -18 -6 4 -19 0
-28 -9 -38 -33 -353 -26 -409 10 -30 19 -29 37 6 87 15 23 32 53 36 67 4 14
25 43 45 65 20 22 61 66 91 99 30 32 72 70 94 84 22 14 46 34 54 44 7 11 23
23 35 28 24 11 166 5 211 -8z m269 -318 c11 -4 16 -19 16 -48 0 -23 7 -51 15
-62 8 -10 15 -27 15 -37 0 -10 7 -40 16 -67 l16 -50 -51 -52 c-28 -28 -51 -58
-51 -65 0 -7 -4 -12 -9 -10 -4 1 -17 -8 -27 -21 -18 -21 -22 -22 -47 -11 -15
7 -27 15 -27 18 0 3 -23 6 -50 7 -78 1 -80 10 -30 111 24 49 54 101 67 117 14
17 36 55 49 85 37 83 57 101 98 85z"/>
</g>
</svg>
